<?xml version="1.0" standalone="no"?>
<!DOCTYPE svg PUBLIC "-//W3C//DTD SVG 20010904//EN"
 "http://www.w3.org/TR/2001/REC-SVG-20010904/DTD/svg10.dtd">
<svg version="1.0" xmlns="http://www.w3.org/2000/svg"
 width="474.000000pt" height="263.000000pt" viewBox="0 0 474.000000 263.000000"
 preserveAspectRatio="xMidYMid meet">

<g transform="translate(0.000000,263.000000) scale(0.100000,-0.100000)"
fill="#000000" stroke="none">
<path d="M44 2617 c-6 -7 -13 -25 -16 -39 -6 -31 11 -42 44 -28 16 6 18 9 7 9
-20 1 -30 22 -22 50 6 24 3 26 -13 8z"/>
<path d="M370 2620 c0 -10 28 -28 45 -28 13 -1 19 -22 6 -22 -13 0 -56 -43
-64 -64 -4 -9 -13 -16 -20 -16 -8 0 -19 -11 -25 -24 -12 -26 -2 -42 28 -45 8
-1 47 -5 85 -10 58 -7 72 -5 82 7 11 13 9 19 -6 33 -12 11 -17 26 -14 39 3 11
0 27 -7 34 -13 16 -3 43 24 66 36 29 19 40 -59 40 -42 0 -75 -4 -75 -10z"/>
<path d="M946 2615 c-3 -8 1 -27 9 -42 8 -16 17 -41 21 -58 4 -19 8 -25 12
-15 13 37 65 41 88 5 13 -20 21 -23 46 -18 25 5 34 1 54 -23 13 -16 23 -35 24
-41 0 -15 6 -15 35 -4 11 5 32 4 48 -1 20 -7 45 -5 90 7 62 16 79 15 127 -14
8 -5 28 -15 44 -22 35 -17 56 -47 59 -85 4 -46 27 -42 27 5 0 26 5 41 13 42 6
1 40 2 74 4 54 3 61 1 49 -11 -8 -8 -20 -14 -27 -14 -6 0 -22 -12 -35 -26 -19
-20 -22 -29 -14 -44 22 -41 45 -42 102 -4 74 50 107 66 124 60 24 -9 15 -38
-23 -72 l-38 -34 25 -21 c24 -20 24 -21 5 -35 -21 -15 -61 -19 -69 -6 -3 5
-31 9 -64 10 -32 1 -75 8 -95 17 -20 8 -51 15 -70 15 -18 0 -37 4 -43 10 -5 5
-87 12 -181 14 -94 3 -181 9 -192 15 -11 6 -46 13 -78 15 -64 5 -166 20 -228
34 -29 6 -48 5 -69 -6 -22 -11 -34 -11 -53 -3 -13 6 -41 11 -62 11 -21 0 -51
7 -67 14 -57 29 -272 72 -334 67 -112 -8 -170 -8 -175 0 -4 5 -28 9 -56 9
l-49 0 0 -749 0 -749 47 -6 c27 -3 59 -6 73 -5 14 0 32 0 40 1 98 2 319 -16
342 -28 15 -8 28 -10 28 -5 0 5 46 10 103 11 56 1 122 4 147 6 227 18 298 21
380 16 123 -7 167 -6 210 3 l35 7 -31 -20 c-40 -25 -42 -29 -60 -99 -21 -85
-32 -101 -68 -105 -35 -3 -44 -32 -11 -34 53 -3 55 -4 55 -31 0 -16 -9 -86
-20 -158 -12 -72 -23 -144 -26 -162 -5 -32 -5 -32 -24 -13 -46 46 -75 10 -41
-50 12 -21 21 -42 20 -47 -1 -4 -1 -15 1 -23 1 -11 4 -9 10 5 5 12 6 -11 3
-58 l-6 -77 606 0 c475 0 606 3 610 13 4 10 6 10 6 0 1 -10 120 -13 560 -13
477 0 560 2 571 15 6 8 9 18 6 24 -9 14 4 41 20 41 8 0 14 -6 14 -14 0 -21 17
-29 24 -11 3 8 -1 21 -9 29 -8 8 -15 21 -15 29 0 13 -30 47 -42 47 -4 0 -1
-14 5 -30 9 -25 9 -33 -2 -40 -18 -11 -41 -2 -41 16 0 8 7 26 16 40 20 30 24
106 6 112 -6 2 -12 12 -12 22 0 10 -7 20 -15 24 -8 3 -15 15 -15 26 0 11 -7
20 -15 20 -17 0 -19 9 -6 29 6 10 4 25 -5 42 -8 16 -14 42 -14 60 0 24 3 30
16 25 13 -5 15 -1 9 21 -3 15 -10 30 -14 33 -16 10 -20 50 -5 50 8 0 14 6 14
13 0 17 -20 37 -38 37 -22 0 -41 26 -36 48 3 11 1 23 -5 26 -8 5 -6 17 3 41
13 31 6 59 -9 36 -8 -14 -44 -9 -49 6 -3 7 -1 13 5 13 6 0 6 7 -1 20 -13 25
-1 26 45 4 25 -12 38 -13 53 -5 13 7 78 9 183 5 205 -6 220 -9 253 -39 15 -14
36 -30 47 -36 37 -19 5 -31 -98 -36 -54 -2 -125 -7 -159 -10 -53 -4 -67 -2
-108 21 -51 28 -53 26 -28 -49 15 -45 20 -50 52 -55 l35 -5 1 -100 c1 -103 10
-155 25 -155 5 0 9 5 9 12 0 6 2 9 4 7 2 -2 -2 -26 -9 -54 -9 -36 -14 -44 -18
-30 -2 11 -5 -8 -6 -42 -1 -70 7 -103 20 -81 7 10 9 11 9 0 0 -7 5 -10 11 -6
8 5 10 -1 7 -19 -3 -14 -2 -31 3 -38 4 -7 1 -19 -7 -27 -13 -13 -16 -46 -4
-41 3 1 15 -3 28 -10 17 -9 21 -17 16 -36 l-6 -25 516 0 516 0 0 381 0 381
-35 -6 c-46 -9 -125 3 -125 18 0 13 70 46 98 46 9 0 27 3 40 6 l22 6 0 605 0
604 -25 26 c-13 15 -26 25 -28 23 -2 -3 -14 -22 -26 -43 -13 -21 -28 -43 -35
-50 -6 -6 -22 -28 -34 -49 -46 -74 -78 -52 -69 47 4 36 4 65 2 65 -3 0 -16
-23 -30 -51 -18 -35 -31 -49 -43 -47 -14 3 -17 15 -17 65 0 59 2 64 38 96 20
19 37 39 37 45 0 5 10 22 22 37 15 20 22 42 22 78 1 31 6 52 14 55 19 6 14 28
-10 46 l-23 17 23 -7 c47 -12 103 7 144 48 40 41 46 53 25 61 -9 4 -9 6 1 6
16 1 16 28 0 34 -10 4 -10 6 0 6 7 1 12 16 12 41 l0 40 -60 0 -59 0 -10 -37
c-6 -21 -11 -45 -11 -54 0 -23 -58 -21 -66 3 -3 10 -13 18 -23 18 -18 0 -55
53 -44 64 3 3 -14 6 -40 6 -25 0 -48 -4 -51 -9 -6 -10 38 -43 67 -51 24 -7 18
-26 -7 -22 -10 1 -25 -3 -33 -9 -10 -9 -17 -9 -24 -2 -8 8 -7 13 0 17 7 5 1
17 -17 33 -15 14 -26 29 -25 34 2 5 -11 9 -28 9 -31 0 -32 -1 -26 -40 3 -28 1
-40 -7 -40 -21 0 -63 -52 -91 -112 -19 -41 -33 -58 -46 -58 -11 0 -22 7 -25
15 -5 12 -13 10 -50 -10 -57 -32 -63 -31 -70 5 -6 26 -11 30 -40 30 -18 0 -45
5 -59 12 -23 10 -28 10 -36 -5 -6 -9 -16 -17 -24 -17 -7 0 -15 -6 -17 -12 -3
-7 -18 -11 -36 -10 -37 3 -52 -15 -22 -26 l21 -8 -23 -20 c-22 -19 -23 -24
-16 -100 4 -43 10 -92 14 -108 6 -27 6 -28 -23 -22 -26 6 -31 4 -36 -15 -6
-22 -6 -22 -34 -4 -15 10 -32 24 -36 32 -4 7 -23 13 -42 13 -27 0 -38 6 -52
28 -9 15 -18 29 -20 31 -6 9 -59 -53 -79 -93 -17 -35 -26 -41 -55 -44 -47 -4
-89 13 -89 36 0 31 29 62 58 62 15 0 44 5 66 11 38 11 38 11 32 51 -8 51 -16
64 -28 47 -7 -11 -12 -9 -25 9 -8 12 -22 22 -30 22 -10 0 -12 6 -8 20 5 15 2
20 -13 20 -11 0 -25 -7 -32 -15 -9 -10 -9 -15 -1 -15 19 0 12 -28 -11 -44 -13
-9 -43 -16 -69 -16 -65 0 -80 -20 -45 -61 38 -45 34 -65 -19 -89 l-45 -20 -35
22 c-36 24 -44 52 -25 88 11 21 8 24 -31 33 -22 6 -27 2 -37 -27 -9 -24 -22
-38 -45 -46 -31 -11 -31 -12 -9 -21 14 -5 22 -17 22 -33 0 -13 7 -26 15 -30 8
-3 12 -11 10 -18 -3 -8 4 -24 16 -37 28 -30 13 -43 -34 -26 -21 7 -56 11 -77
8 l-40 -6 -1 44 c0 24 -3 53 -6 64 -3 11 -7 42 -10 68 -5 45 -3 50 31 82 31
29 36 40 36 79 l0 45 57 26 c32 14 64 32 73 39 20 18 117 21 137 4 13 -11 17
-11 21 0 2 7 10 18 17 25 6 6 10 20 7 30 -4 16 -11 18 -38 14 -19 -3 -34 -2
-34 3 0 14 33 23 83 21 41 -2 47 0 47 17 0 25 21 33 61 25 l31 -6 -16 30 c-8
17 -12 33 -9 37 4 3 -75 6 -175 6 -123 0 -182 -3 -182 -11 0 -6 -7 -17 -15
-25 -8 -9 -15 -13 -15 -9 0 4 -7 0 -15 -9 -8 -8 -15 -19 -15 -25 0 -6 -4 -11
-10 -11 -13 0 -24 45 -17 70 5 18 0 20 -38 20 -40 0 -42 -1 -37 -25 4 -22 1
-25 -22 -25 -21 0 -26 5 -26 25 0 24 -2 25 -64 25 -68 0 -76 -6 -76 -56 0 -14
-8 -39 -17 -57 -10 -18 -18 -43 -18 -57 0 -36 -30 -38 -48 -3 -8 15 -13 33
-11 38 4 13 -15 38 -41 53 -19 11 -19 12 5 9 22 -2 25 2 28 36 l3 37 -161 0
c-105 0 -159 -3 -155 -10 3 -5 -1 -10 -9 -10 -8 0 -18 5 -21 10 -7 11 -717 15
-728 3 -4 -3 -2 -12 3 -18 8 -9 -2 -21 -36 -44 -49 -32 -78 -39 -89 -21 -4 6
-11 8 -16 5 -19 -13 -27 6 -13 33 27 52 28 52 -170 52 -153 0 -185 -2 -190
-15z m609 -69 c-3 -6 -8 -18 -11 -26 -8 -24 -43 -42 -65 -35 -18 6 -28 53 -13
68 12 12 95 5 89 -7z m1335 -26 c0 -28 -3 -30 -31 -28 -17 1 -33 6 -36 11 -7
11 17 38 28 31 5 -3 9 0 9 5 0 6 7 11 15 11 10 0 15 -10 15 -30z m-340 -101
c10 -24 10 -32 0 -42 -10 -9 -14 -9 -17 1 -3 6 -9 10 -13 7 -5 -3 -12 0 -16 6
-5 8 -3 9 6 4 10 -6 12 1 7 34 -4 34 -3 40 8 31 7 -6 18 -24 25 -41z m327 45
c-3 -3 -12 -4 -19 -1 -8 3 -5 6 6 6 11 1 17 -2 13 -5z m-167 -53 c14 -15 21
-21 16 -14 -5 8 -4 13 3 13 14 0 46 -49 37 -58 -4 -3 -10 -2 -14 4 -11 17 -63
43 -112 55 -37 9 -41 13 -25 19 40 14 70 9 95 -19z m-1075 -16 c0 -22 -14 -28
-34 -16 -12 8 -13 12 -1 26 16 20 35 14 35 -10z m2880 15 c3 -5 -1 -10 -9 -10
-9 0 -16 5 -16 10 0 6 4 10 9 10 6 0 13 -4 16 -10z m-667 -52 c17 -17 15 -28
-7 -28 -25 0 -47 26 -29 33 20 8 23 8 36 -5z m456 -3 c11 -8 17 -18 13 -22
-10 -10 -59 15 -52 27 8 13 16 12 39 -5z m-249 -44 c7 -23 94 -95 120 -98 34
-5 45 -12 45 -28 0 -21 -25 -19 -85 6 -36 16 -60 35 -87 71 -20 28 -34 56 -31
64 6 17 31 7 38 -15z m-1275 9 c0 -5 -7 -7 -15 -4 -8 4 -15 8 -15 10 0 2 7 4
15 4 8 0 15 -4 15 -10z m1193 -46 c9 -4 17 -16 17 -29 0 -32 23 -48 58 -40 19
4 33 1 41 -9 18 -21 -6 -56 -39 -55 -14 0 -41 -2 -61 -6 -33 -6 -39 -4 -72 31
-20 22 -37 49 -37 61 0 23 48 66 65 58 6 -3 18 -8 28 -11z m-1403 -16 c15 -13
37 -30 49 -38 13 -8 31 -32 42 -52 10 -21 28 -42 39 -48 11 -6 24 -20 30 -33
10 -20 10 -20 -3 -4 -8 9 -19 17 -25 17 -13 0 -26 -36 -18 -49 3 -5 1 -43 -4
-84 -10 -82 5 -153 35 -170 8 -4 15 -16 15 -26 0 -10 7 -24 15 -31 8 -7 12
-16 9 -21 -3 -5 -1 -9 5 -9 12 0 22 35 19 68 -1 14 -9 22 -20 22 -10 0 -18 5
-18 11 0 6 7 8 16 5 13 -5 15 -1 10 19 -4 15 -2 25 4 25 7 0 9 8 5 19 -4 12 0
21 11 25 9 4 19 5 21 2 11 -11 12 -107 3 -180 -9 -67 -15 -85 -37 -104 -16
-14 -35 -22 -51 -20 -23 3 -27 -2 -39 -52 -7 -30 -17 -104 -23 -165 -10 -108
-26 -181 -42 -200 -14 -16 -9 -28 7 -15 12 10 15 10 15 -1 0 -35 -22 -145 -31
-155 -5 -7 -11 -26 -12 -43 -2 -25 -9 -34 -37 -45 -19 -8 -47 -26 -62 -40 -29
-28 -51 -34 -42 -13 3 8 -4 13 -17 14 -12 1 -22 3 -23 5 -1 2 -9 25 -18 52
-16 47 -16 50 0 63 9 7 25 13 34 13 16 0 81 60 73 68 -2 2 -21 -10 -42 -27
-22 -17 -53 -35 -70 -40 -31 -9 -31 -9 -17 17 11 23 11 30 -2 49 -13 20 -13
23 0 23 12 0 13 6 7 22 -6 17 -4 26 8 34 12 9 13 15 3 26 -9 12 -3 19 32 42
24 15 54 38 66 51 l22 23 -41 -14 c-42 -14 -91 -10 -126 12 -18 10 -60 22
-147 39 -16 3 -28 12 -28 20 0 18 62 36 150 44 49 5 66 10 68 23 2 11 -8 20
-33 28 -53 17 -33 34 32 26 30 -4 64 -11 74 -17 22 -11 24 -6 8 22 -6 11 -16
18 -24 16 -7 -3 -22 1 -34 9 -32 23 -130 36 -170 23 -25 -9 -35 -8 -41 1 -10
16 -11 16 -40 0 -14 -8 -28 -13 -32 -12 -5 1 -8 -2 -8 -8 0 -5 -4 -10 -10 -10
-5 0 -10 15 -10 33 0 18 -5 38 -12 45 -6 6 -11 25 -10 41 0 17 -3 30 -8 28 -4
-1 -9 3 -10 8 0 6 -12 16 -25 22 -13 7 -27 22 -30 34 -4 12 -12 18 -21 15 -17
-7 -18 8 -1 22 7 6 21 40 32 76 21 70 35 85 35 37 0 -34 19 -54 40 -41 22 14
27 12 26 -12 -1 -21 4 -23 60 -26 58 -3 64 -1 95 30 19 18 39 41 44 51 15 27
48 26 60 0 5 -13 13 -23 17 -23 5 0 8 -6 8 -14 0 -21 39 -46 70 -46 26 0 77
29 52 30 -7 0 -10 5 -7 11 4 6 21 9 39 8 17 -2 37 0 44 5 17 10 15 36 -3 36
-18 0 -19 4 -3 30 17 27 3 38 -65 50 -46 9 -69 8 -122 -5 -35 -9 -68 -14 -73
-11 -4 2 -14 1 -21 -4 -8 -4 -28 -2 -47 6 -18 8 -67 14 -108 14 -70 0 -77 -2
-92 -25 -9 -14 -20 -25 -25 -25 -5 0 -9 46 -9 103 0 92 2 106 21 126 23 25 79
52 91 45 17 -11 137 20 203 51 90 43 91 43 149 44 36 1 55 -5 76 -21z m1750
-200 c0 -9 -22 -10 -44 -2 -8 3 -13 11 -10 19 4 10 11 10 30 1 13 -6 24 -14
24 -18z m-302 -39 c3 -31 0 -36 -18 -34 -29 2 -39 16 -33 48 4 22 10 27 27 25
16 -2 22 -11 24 -39z m-338 11 c0 -5 -2 -10 -4 -10 -3 0 -8 5 -11 10 -3 6 -1
10 4 10 6 0 11 -4 11 -10z m-578 -17 c25 -22 23 -41 -6 -49 -54 -13 -92 30
-48 55 24 14 33 13 54 -6z m1238 -22 c18 -35 12 -51 -20 -51 -33 0 -35 5 -20
44 11 31 25 33 40 7z m-149 -21 c25 0 25 -36 0 -50 -27 -14 -91 -13 -91 2 0
19 43 59 58 53 7 -3 22 -5 33 -5z m-857 -15 c7 -20 -10 -28 -34 -15 -14 8 -25
8 -33 2 -8 -7 -18 -6 -30 2 -26 20 -22 22 37 24 39 1 56 -3 60 -13z m710 -4
c27 -29 17 -55 -22 -59 -38 -4 -51 16 -34 54 14 29 33 31 56 5z m-231 -16 c9
-8 14 -23 12 -32 -2 -10 -4 -21 -4 -24 -2 -12 -36 -16 -59 -8 -14 5 -22 17
-22 32 0 43 43 62 73 32z m-1878 -224 c-3 -11 -1 -22 5 -26 5 -3 10 -1 10 4 0
6 7 11 16 11 11 0 14 -6 8 -22 -7 -23 -6 -23 15 -4 21 19 21 19 21 -7 0 -14 5
-29 10 -32 6 -3 10 -19 10 -34 0 -15 4 -41 9 -57 5 -16 12 -42 16 -59 6 -28 5
-29 -9 -10 -8 12 -18 52 -23 90 -7 54 -12 69 -23 66 -23 -6 -52 -3 -61 6 -15
15 -23 93 -10 93 8 0 10 -8 6 -19z m149 -196 c7 -19 -3 -47 -15 -39 -12 7 -12
54 0 54 5 0 11 -7 15 -15z m716 -194 c0 -8 -11 3 -25 23 -14 20 -25 40 -25 44
1 13 50 -53 50 -67z m135 -169 c-3 -3 -11 0 -18 7 -9 10 -8 11 6 5 10 -3 15
-9 12 -12z m75 -38 c0 -2 -13 2 -30 11 -16 9 -30 18 -30 21 0 2 14 -2 30 -11
17 -9 30 -18 30 -21z m-640 16 c0 -5 -4 -10 -10 -10 -5 0 -10 5 -10 10 0 6 5
10 10 10 6 0 10 -4 10 -10z m709 -46 c14 -12 -19 -1 -35 12 -18 14 -18 14 6 3
14 -6 27 -13 29 -15z m-791 -103 c-7 -2 -18 -11 -23 -18 -12 -16 -45 -7 -45
12 0 7 -20 35 -45 63 l-45 50 86 -51 c47 -28 80 -53 72 -56z m947 49 c13 -6
15 -9 5 -9 -8 0 -22 4 -30 9 -18 12 -2 12 25 0z m80 -30 c3 -5 1 -10 -4 -10
-6 0 -11 5 -11 10 0 6 2 10 4 10 3 0 8 -4 11 -10z m-963 -105 c-5 -29 -8 -30
-29 -9 -14 13 -14 17 -2 25 25 16 36 10 31 -16z m233 -6 c11 -17 -5 -25 -16
-9 -9 12 -10 11 -5 -4 4 -10 1 -25 -5 -32 -17 -20 -6 -17 21 6 13 11 27 20 32
20 11 0 12 5 -54 -205 -49 -157 -67 -199 -69 -160 0 15 -2 16 -6 5 -3 -8 -18
-40 -32 -71 -25 -52 -28 -55 -51 -47 -22 8 -23 11 -9 21 9 7 14 17 12 24 -2 6
0 14 5 17 10 6 -8 189 -23 237 -6 18 5 23 51 22 7 0 17 11 23 25 l12 25 -26
-17 c-24 -16 -26 -16 -34 7 -9 23 -14 60 -12 84 1 8 11 11 30 7 22 -5 38 0 63
19 28 21 49 31 80 36 4 0 10 -4 13 -10z m1832 -53 c34 -4 69 -9 77 -12 23 -9
20 -24 -4 -24 -11 0 -20 -4 -20 -10 0 -5 -18 -10 -41 -10 -24 0 -38 4 -34 10
8 13 -18 13 -31 0 -22 -22 -194 -14 -194 8 0 19 128 53 170 46 8 -2 43 -5 77
-8z m-1087 -25 c0 -5 -7 -11 -15 -15 -15 -5 -20 5 -8 17 9 10 23 9 23 -2z
m-1175 -25 c48 -17 56 -33 19 -42 -25 -6 -26 -8 -9 -20 15 -12 20 -11 31 4 18
23 17 15 -7 -75 -21 -82 -38 -123 -49 -123 -6 0 -22 101 -34 217 -3 33 0 54 8
53 1 0 19 -7 41 -14z m212 -10 c15 -15 20 -44 8 -48 -5 -2 -11 6 -13 18 -2 12
-17 28 -35 37 l-32 17 30 -6 c17 -4 35 -12 42 -18z m973 4 c0 -5 -5 -10 -11
-10 -5 0 -7 5 -4 10 3 6 8 10 11 10 2 0 4 -4 4 -10z m29 -7 c-7 -10 -15 -20
-16 -22 -2 -2 -3 5 -3 17 0 14 6 22 16 22 14 0 15 -3 3 -17z m495 -150 c3 -10
8 -23 11 -29 8 -17 -23 -26 -46 -14 -21 12 -26 46 -6 53 23 10 35 7 41 -10z
m-128 -29 c30 -31 30 -44 2 -44 -56 1 -80 59 -29 69 2 1 14 -10 27 -25z
m-1436 -34 c0 -5 -4 -10 -10 -10 -5 0 -10 5 -10 10 0 6 5 10 10 10 6 0 10 -4
10 -10z m1429 -74 c15 -18 2 -27 -27 -19 -18 4 -20 8 -11 19 15 18 24 18 38 0z
m-610 -37 c34 -34 38 -50 17 -72 -9 -9 -11 -19 -5 -28 13 -21 11 -39 -5 -33
-10 4 -14 16 -11 35 4 31 -5 37 -27 16 -17 -16 -65 -18 -71 -3 -3 7 10 21 29
31 39 21 43 32 13 43 -20 8 -20 9 -4 25 23 23 29 22 64 -14z m676 -19 c-3 -6
1 -13 10 -17 14 -5 11 -9 -14 -19 -32 -13 -39 -32 -21 -50 8 -8 6 -15 -5 -24
-18 -15 -15 -17 -43 37 -23 46 -23 47 26 58 17 3 32 11 32 16 0 5 5 9 11 9 5
0 7 -5 4 -10z m82 -33 c-5 -17 -33 -21 -40 -5 -3 9 4 15 20 16 16 1 23 -3 20
-11z m-1406 -110 c-6 -6 -11 -24 -11 -39 0 -15 -5 -28 -11 -28 -5 0 -7 -5 -4
-10 4 -6 2 -16 -3 -23 -5 -7 -13 -27 -17 -45 -3 -17 -11 -32 -17 -32 -6 0 -8
6 -5 13 2 7 17 63 33 126 26 103 29 110 37 81 5 -21 4 -37 -2 -43z m629 33 c0
-5 -2 -10 -4 -10 -3 0 -8 5 -11 10 -3 6 -1 10 4 10 6 0 11 -4 11 -10z m547
-52 c-3 -7 -5 -2 -5 12 0 14 2 19 5 13 2 -7 2 -19 0 -25z m-1407 12 c0 -5 -7
-10 -15 -10 -8 0 -15 5 -15 10 0 6 7 10 15 10 8 0 15 -4 15 -10z m967 -42 c-3
-7 -5 -2 -5 12 0 14 2 19 5 13 2 -7 2 -19 0 -25z m-10 -65 c-3 -10 -5 -2 -5
17 0 19 2 27 5 18 2 -10 2 -26 0 -35z m626 -34 c-5 -5 -19 -5 -33 -2 -22 6
-22 7 -4 13 23 9 49 1 37 -11z m-636 -11 c-3 -8 -6 -5 -6 6 -1 11 2 17 5 13 3
-3 4 -12 1 -19z m570 16 c-3 -3 -12 -4 -19 -1 -8 3 -5 6 6 6 11 1 17 -2 13 -5z
m-1377 -40 c0 -2 -7 -4 -15 -4 -8 0 -15 4 -15 10 0 5 7 7 15 4 8 -4 15 -8 15
-10z m80 -34 c-19 -38 -30 -49 -30 -32 0 10 39 72 45 72 3 0 -4 -18 -15 -40z
m1224 15 c-4 -8 -8 -15 -10 -15 -2 0 -4 7 -4 15 0 8 4 15 10 15 5 0 7 -7 4
-15z m-507 -62 c-3 -10 -5 -2 -5 17 0 19 2 27 5 18 2 -10 2 -26 0 -35z"/>
<path d="M2243 1656 c-13 -6 -23 -14 -23 -17 0 -10 23 -26 43 -30 10 -2 18 -8
17 -13 -1 -6 44 -36 55 -36 1 0 5 14 9 30 4 24 11 30 31 30 14 0 25 5 25 10 0
6 -13 10 -29 10 -17 0 -33 5 -37 11 -3 6 -15 9 -25 6 -10 -3 -22 -1 -25 4 -6
11 -12 10 -41 -5z"/>
<path d="M2446 991 c21 -21 29 -19 21 4 -4 8 -14 15 -23 15 -16 0 -16 -2 2
-19z"/>
<path d="M2440 940 c0 -19 3 -21 12 -12 9 9 9 15 0 24 -9 9 -12 7 -12 -12z"/>
<path d="M2950 2619 c0 -5 5 -7 10 -4 6 3 10 8 10 11 0 2 -4 4 -10 4 -5 0 -10
-5 -10 -11z"/>
<path d="M4000 2615 c0 -11 5 -27 10 -35 8 -12 10 -12 10 5 0 11 -5 27 -10 35
-8 12 -10 12 -10 -5z"/>
<path d="M614 2563 c-3 -10 -10 -26 -15 -36 -12 -22 -3 -57 15 -57 13 0 76 81
76 97 0 5 -16 10 -35 11 -27 2 -37 -2 -41 -15z"/>
<path d="M3660 2557 c0 -25 35 -61 53 -54 34 13 16 47 -30 61 -17 5 -23 3 -23
-7z"/>
<path d="M80 2511 c0 -12 5 -21 10 -21 6 0 10 6 10 14 0 8 -4 18 -10 21 -5 3
-10 -3 -10 -14z"/>
<path d="M536 2521 c-4 -7 -5 -15 -2 -18 9 -9 19 4 14 18 -4 11 -6 11 -12 0z"/>
<path d="M3489 2499 c-5 -10 -9 -20 -9 -22 0 -5 75 -37 85 -37 14 0 2 17 -17
25 -15 7 -22 18 -21 31 3 26 -24 28 -38 3z"/>
<path d="M4038 2493 c-22 -3 -28 -10 -28 -29 0 -32 20 -30 55 6 29 30 28 31
-27 23z"/>
<path d="M707 2474 c-8 -8 1 -24 13 -24 4 0 10 7 14 15 5 15 -14 21 -27 9z"/>
<path d="M972 2461 c4 -13 18 -16 19 -4 0 4 -5 9 -11 12 -7 2 -11 -2 -8 -8z"/>
<path d="M3384 2426 c-13 -41 -3 -80 20 -84 16 -3 18 0 12 22 -4 15 -2 26 4
26 5 0 10 -5 10 -10 0 -6 11 -8 25 -4 16 4 34 0 50 -10 20 -13 23 -13 19 -2
-4 11 0 13 16 9 34 -9 23 38 -12 55 -16 7 -28 17 -28 23 0 5 -7 9 -15 9 -10 0
-15 -10 -15 -27 0 -24 -1 -25 -17 -11 -10 9 -27 20 -38 26 -18 9 -22 6 -31
-22z"/>
<path d="M756 2404 c-5 -12 -2 -15 10 -10 8 3 18 6 20 6 2 0 4 5 4 10 0 16
-27 11 -34 -6z"/>
<path d="M1470 2346 c0 -15 18 -31 26 -23 7 7 -7 37 -17 37 -5 0 -9 -6 -9 -14z"/>
<path d="M4615 2340 c-4 -6 -3 -14 0 -20 3 -5 1 -20 -5 -32 -9 -19 -7 -19 14
5 14 15 26 32 26 36 0 13 -29 21 -35 11z"/>
<path d="M1186 2331 c-3 -5 1 -11 9 -15 8 -3 15 -1 15 4 0 13 -18 22 -24 11z"/>
<path d="M4682 2328 c-17 -17 -15 -32 7 -52 11 -10 21 -27 23 -39 2 -11 9 -22
16 -25 19 -6 16 84 -3 92 -8 3 -15 12 -15 21 0 18 -12 19 -28 3z"/>
<path d="M1306 2321 c-10 -15 22 -20 34 -5 10 11 9 14 -8 14 -12 0 -23 -4 -26
-9z"/>
<path d="M3595 2249 c-8 -13 -6 -15 23 -24 23 -7 23 -6 5 14 -20 24 -20 24
-28 10z"/>
<path d="M3120 2229 c0 -5 5 -7 10 -4 6 3 10 8 10 11 0 2 -4 4 -10 4 -5 0 -10
-5 -10 -11z"/>
<path d="M3670 2151 c0 -6 5 -13 10 -16 6 -3 10 1 10 9 0 9 -4 16 -10 16 -5 0
-10 -4 -10 -9z"/>
<path d="M4585 2056 c-3 -9 -7 -23 -10 -31 -2 -8 0 -17 4 -20 5 -2 11 9 15 27
7 33 0 52 -9 24z"/>
<path d="M663 786 c-7 -8 -8 -17 -3 -22 5 -5 5 -15 0 -24 -9 -13 -11 -13 -20
0 -8 12 -10 11 -10 -7 0 -33 -33 -45 -116 -42 l-74 4 -20 -33 c-21 -34 -40
-35 -40 -2 0 19 -32 36 -49 26 -5 -3 -7 -15 -4 -26 4 -16 0 -20 -17 -20 -13 0
-24 8 -27 20 -5 18 -15 24 -36 21 -4 0 -7 6 -7 14 0 8 8 15 18 16 13 0 14 2 2
6 -8 4 -21 12 -28 20 -14 13 -31 17 -67 13 -26 -2 -38 -14 -42 -42 -2 -12 -5
-23 -7 -26 -9 -8 -86 20 -86 32 0 8 -7 16 -15 20 -13 4 -15 -8 -15 -79 0 -83
1 -85 24 -85 13 0 51 -13 84 -30 34 -16 65 -30 70 -30 5 0 17 -9 28 -21 28
-32 52 -41 85 -34 38 9 37 25 -2 25 -21 0 -30 4 -26 13 2 6 1 22 -4 35 -6 16
-16 22 -40 22 -17 0 -43 6 -57 14 -15 8 -39 17 -55 21 -35 7 -36 37 -2 71 14
14 25 29 25 34 0 13 18 22 30 15 7 -4 7 -12 0 -24 -18 -34 9 -68 60 -76 46 -7
171 -8 313 -3 73 2 79 1 103 -25 24 -26 54 -36 54 -18 0 15 49 23 164 27 60 2
115 9 121 14 18 15 24 68 10 87 -12 17 -53 24 -115 22 -37 -2 -50 -1 -130 5
-72 5 -72 5 -65 16 3 6 20 10 36 10 35 0 35 19 1 35 -12 5 -22 13 -22 17 0 12
-14 9 -27 -6z"/>
<path d="M3446 734 c-9 -22 -8 -24 9 -24 8 0 15 9 15 20 0 24 -15 27 -24 4z"/>
<path d="M1097 563 c6 -91 11 -113 26 -113 28 0 37 22 21 51 -11 22 -12 38 -5
71 11 49 8 58 -23 58 -23 0 -24 -2 -19 -67z"/>
<path d="M3568 515 c2 -19 6 -35 8 -35 2 0 4 16 4 35 0 19 -4 35 -8 35 -4 0
-6 -16 -4 -35z"/>
<path d="M659 507 c-9 -21 -10 -33 0 -53 9 -20 9 -35 0 -61 -12 -37 -4 -52 31
-54 37 -2 72 -9 104 -20 30 -11 37 -10 61 9 15 12 37 22 49 22 25 1 56 22 56
39 0 15 -16 14 -32 -3 -8 -7 -48 -16 -93 -20 -68 -6 -85 -4 -115 13 -36 19
-42 37 -27 92 4 16 1 33 -7 45 -14 18 -15 18 -27 -9z"/>
<path d="M30 380 c0 -5 11 -10 25 -10 14 0 25 5 25 10 0 6 -11 10 -25 10 -14
0 -25 -4 -25 -10z"/>
<path d="M335 383 c-11 -3 -26 -10 -33 -16 -11 -9 -11 -12 0 -18 24 -13 97
-21 128 -14 40 9 34 28 -11 36 -19 4 -41 9 -49 11 -8 3 -24 3 -35 1z"/>
<path d="M853 243 c9 -9 19 -14 23 -11 10 10 -6 28 -24 28 -15 0 -15 -1 1 -17z"/>
<path d="M776 211 c-4 -5 -3 -16 0 -24 7 -18 -8 -29 -60 -42 -51 -14 -64 -41
-15 -31 48 10 131 7 146 -6 17 -14 63 -2 63 17 0 18 -39 30 -53 16 -17 -17
-35 -13 -48 10 -8 15 -8 24 0 32 17 17 13 37 -8 37 -11 0 -22 -4 -25 -9z"/>
<path d="M163 198 c-6 -7 -12 -23 -15 -34 -5 -19 3 -26 55 -48 33 -14 64 -23
69 -20 11 7 -20 44 -37 44 -7 0 -20 16 -31 35 -20 38 -26 41 -41 23z"/>
<path d="M7 133 c-15 -15 -6 -33 17 -33 33 0 42 16 17 29 -23 13 -26 13 -34 4z"/>
<path d="M345 117 l-50 -12 -3 -53 -3 -52 150 0 c132 0 151 2 151 16 0 9 -14
29 -30 44 -30 28 -30 29 -8 36 22 7 22 7 3 14 -40 14 -161 18 -210 7z"/>
<path d="M1158 124 c-11 -10 3 -34 19 -34 8 0 13 7 11 17 -3 18 -20 27 -30 17z"/>
<path d="M975 80 c-4 -6 -12 -7 -18 -4 -7 4 -5 0 3 -9 24 -24 110 -27 110 -3
0 21 -83 35 -95 16z"/>
<path d="M882 45 c14 -32 28 -32 28 0 0 18 -5 25 -20 25 -17 0 -18 -3 -8 -25z"/>
<path d="M930 10 c0 -5 5 -10 10 -10 6 0 10 5 10 10 0 6 -4 10 -10 10 -5 0
-10 -4 -10 -10z"/>
</g>
</svg>
